<svg width="527" height="364" viewBox="0 0 527 364" fill="none" xmlns="http://www.w3.org/2000/svg">
<g filter="url(#filter0_d_1_254)">
<rect x="-2.05613e-08" y="0.344961" width="177.31" height="283.558" rx="13.4535" transform="matrix(0.866025 0.5 -0.866025 0.5 309.873 57.1725)" fill="url(#paint0_linear_1_254)" stroke="url(#paint1_linear_1_254)" stroke-width="0.689923"/>
<g opacity="0.9">
<rect opacity="0.75" x="4.47035e-08" y="-0.25" width="19.2897" height="19.2897" rx="9.64486" transform="matrix(-0.866025 -0.5 0.866026 -0.5 218.562 273.496)" stroke="url(#paint2_linear_1_254)" stroke-width="0.5"/>
<rect opacity="0.7" x="4.47035e-08" y="-0.25" width="19.2897" height="19.2897" rx="9.64486" transform="matrix(-0.866025 -0.5 0.866026 -0.5 208.216 267.522)" stroke="url(#paint3_linear_1_254)" stroke-width="0.5"/>
</g>
<g filter="url(#filter1_d_1_254)">
<path d="M109.142 191.163C108.889 191.309 108.59 191.412 108.246 191.473C107.902 191.534 107.526 191.53 107.12 191.461C106.718 191.389 106.312 191.234 105.901 190.997L104.998 190.475L102.976 191.643L102.158 191.171L107.141 188.294L108.862 189.287C109.245 189.508 109.5 189.733 109.629 189.962C109.768 190.191 109.79 190.408 109.694 190.612C109.603 190.819 109.419 191.003 109.142 191.163ZM106.568 190.612C106.879 190.791 107.18 190.885 107.471 190.894C107.768 190.899 108.045 190.827 108.303 190.678C108.848 190.364 108.812 190.028 108.195 189.672L107.292 189.151L105.665 190.091L106.568 190.612ZM116.102 193.467L111.119 196.344L110.301 195.872L112.481 194.614L110.137 193.26L107.957 194.519L107.14 194.047L112.123 191.17L112.94 191.642L110.803 192.875L113.148 194.229L115.285 192.995L116.102 193.467ZM118.712 194.974L113.729 197.851L112.912 197.379L117.895 194.502L118.712 194.974ZM116.996 198.976L118.681 199.949L118.022 200.33L115.519 198.885L120.502 196.008L121.32 196.48L116.996 198.976ZM125.223 198.733L120.24 201.61L119.422 201.138L124.405 198.261L125.223 198.733ZM129.013 202.635C128.76 202.782 128.461 202.885 128.117 202.946C127.773 203.006 127.398 203.002 126.991 202.933C126.59 202.862 126.183 202.707 125.772 202.47L124.869 201.948L122.847 203.116L122.03 202.644L127.013 199.767L128.733 200.76C129.116 200.981 129.372 201.206 129.501 201.435C129.639 201.664 129.661 201.881 129.565 202.085C129.474 202.292 129.29 202.475 129.013 202.635ZM126.439 202.085C126.75 202.264 127.051 202.358 127.343 202.366C127.639 202.372 127.916 202.3 128.174 202.151C128.719 201.836 128.683 201.501 128.067 201.145L127.163 200.624L125.536 201.563L126.439 202.085ZM132.152 203.495L130.689 204.34L132.41 205.333L131.743 205.718L130.022 204.725L128.495 205.606L130.431 206.724L129.764 207.109L127.011 205.519L132.001 202.638L134.754 204.228L134.087 204.613L132.152 203.495ZM144.299 209.747L139.316 212.624L138.498 212.152L141.911 210.181L136.978 211.274L136.412 210.947L138.297 208.095L134.885 210.065L134.067 209.593L139.05 206.717L139.932 207.226L137.774 210.492L143.424 209.242L144.299 209.747ZM143.33 214.999C142.866 214.731 142.546 214.422 142.369 214.072C142.201 213.721 142.197 213.368 142.354 213.012C142.522 212.656 142.849 212.337 143.337 212.056C143.824 211.774 144.374 211.587 144.986 211.493C145.602 211.402 146.212 211.406 146.814 211.505C147.426 211.605 147.964 211.788 148.427 212.056C148.896 212.326 149.214 212.637 149.381 212.987C149.558 213.338 149.565 213.69 149.402 214.043C149.24 214.396 148.915 214.713 148.427 214.995C147.94 215.276 147.388 215.465 146.771 215.562C146.159 215.656 145.547 215.653 144.936 215.554C144.333 215.454 143.798 215.269 143.33 214.999ZM144.039 214.589C144.369 214.78 144.737 214.907 145.144 214.97C145.555 215.031 145.97 215.022 146.391 214.945C146.821 214.868 147.22 214.723 147.588 214.511C147.956 214.298 148.205 214.069 148.334 213.823C148.468 213.581 148.48 213.342 148.37 213.107C148.26 212.873 148.04 212.66 147.71 212.47C147.381 212.279 147.012 212.152 146.606 212.089C146.2 212.025 145.784 212.031 145.359 212.106C144.938 212.183 144.544 212.328 144.176 212.54C143.808 212.753 143.554 212.982 143.416 213.227C143.287 213.473 143.275 213.714 143.38 213.952C143.49 214.186 143.71 214.399 144.039 214.589ZM150.035 218.812L150.881 216.999L150.257 216.639L148.264 217.79L147.446 217.318L152.429 214.441L154.15 215.434C154.533 215.655 154.788 215.88 154.917 216.109C155.051 216.341 155.07 216.559 154.975 216.763C154.884 216.97 154.7 217.154 154.423 217.314C154.098 217.501 153.706 217.617 153.247 217.662C152.797 217.706 152.329 217.642 151.841 217.471L151.01 219.375L150.035 218.812ZM150.909 216.262L151.813 216.784C152.119 216.961 152.425 217.049 152.731 217.049C153.041 217.052 153.326 216.978 153.584 216.829C153.842 216.68 153.966 216.52 153.957 216.349C153.952 216.175 153.794 215.999 153.483 215.819L152.58 215.298L150.909 216.262ZM156.716 221.494L154.629 220.289L153.253 220.67L152.4 220.178L159.175 218.327L160.122 218.874L156.917 222.786L156.056 222.289L156.716 221.494ZM157.153 220.977L158.659 219.172L155.526 220.037L157.153 220.977ZM164.21 221.243L159.227 224.12L158.41 223.648L163.393 220.771L164.21 221.243ZM162.609 226.13C162.274 225.937 162.031 225.73 161.878 225.509C161.73 225.286 161.686 225.068 161.749 224.855C161.811 224.643 161.985 224.454 162.272 224.288L163.147 224.793C162.951 224.928 162.858 225.079 162.867 225.244C162.881 225.413 163.025 225.575 163.297 225.733C163.579 225.895 163.866 225.984 164.158 225.998C164.454 226.009 164.71 225.952 164.925 225.828C165.092 225.731 165.178 225.624 165.183 225.505C165.193 225.389 165.152 225.272 165.061 225.153C164.975 225.037 164.836 224.885 164.645 224.698C164.406 224.46 164.227 224.258 164.108 224.089C163.998 223.921 163.964 223.742 164.007 223.551C164.05 223.361 164.227 223.176 164.538 222.996C164.825 222.831 165.147 222.727 165.506 222.686C165.864 222.645 166.23 222.665 166.603 222.748C166.975 222.831 167.332 222.97 167.671 223.166C168.154 223.445 168.426 223.743 168.488 224.06C168.56 224.378 168.402 224.667 168.015 224.93L167.112 224.408C167.279 224.295 167.348 224.155 167.32 223.99C167.291 223.824 167.148 223.667 166.889 223.518C166.655 223.383 166.404 223.307 166.137 223.29C165.869 223.274 165.623 223.33 165.398 223.46C165.245 223.548 165.164 223.648 165.154 223.758C165.154 223.868 165.197 223.982 165.283 224.098C165.369 224.213 165.503 224.362 165.685 224.545C165.924 224.787 166.101 224.994 166.215 225.166C166.335 225.339 166.371 225.523 166.323 225.716C166.285 225.909 166.108 226.097 165.792 226.279C165.539 226.425 165.231 226.523 164.868 226.573C164.509 226.625 164.129 226.616 163.728 226.544C163.336 226.472 162.963 226.334 162.609 226.13Z" fill="white"/>
</g>
<g filter="url(#filter2_d_1_254)">
<path d="M92.6816 196.415C92.0044 196.806 91.5882 197.175 91.4328 197.522C91.2775 197.869 91.4746 198.202 92.0243 198.519C92.574 198.836 93.1496 198.95 93.7511 198.86C94.3565 198.773 94.9978 198.534 95.675 198.143C96.3442 197.757 96.7545 197.389 96.9058 197.039C97.0612 196.692 96.864 196.36 96.3143 196.042C95.7646 195.725 95.189 195.611 94.5876 195.701C93.9901 195.788 93.3547 196.026 92.6816 196.415ZM95.1373 197.832C94.7907 198.033 94.474 198.186 94.1872 198.291C93.9084 198.397 93.6296 198.45 93.3508 198.45C93.0719 198.45 92.8011 198.374 92.5382 198.222C92.2793 198.073 92.1498 197.918 92.1498 197.757C92.1498 197.596 92.2394 197.433 92.4187 197.27C92.6059 197.107 92.8728 196.925 93.2193 196.725C93.5619 196.527 93.8726 196.376 94.1514 196.27C94.4342 196.166 94.713 196.116 94.9879 196.118C95.2667 196.118 95.5356 196.193 95.7945 196.342C96.0574 196.494 96.1888 196.65 96.1888 196.811C96.1928 196.97 96.1032 197.13 95.92 197.291C95.7407 197.454 95.4798 197.635 95.1373 197.832ZM99.6857 199.355C99.9048 199.191 100.012 199.03 100.008 198.872C100.012 198.713 99.8928 198.564 99.6499 198.423C99.3113 198.228 98.9229 198.155 98.4847 198.206C98.0506 198.259 97.5487 198.45 96.9791 198.779L96.764 198.91C97.0627 198.806 97.3893 198.776 97.7439 198.82C98.1024 198.861 98.427 198.966 98.7178 199.134C99.136 199.375 99.3372 199.636 99.3212 199.917C99.3093 200.2 99.0783 200.471 98.6281 200.731C98.3652 200.883 98.0745 200.991 97.7558 201.055C97.4411 201.117 97.1125 201.123 96.7699 201.073C96.4354 201.022 96.1107 200.906 95.796 200.724C95.1946 200.377 94.9695 200.028 95.1209 199.679C95.2762 199.332 95.6785 198.971 96.3278 198.596C97.0767 198.163 97.7578 197.908 98.3712 197.83C98.9926 197.752 99.5762 197.87 100.122 198.185C100.524 198.418 100.719 198.661 100.707 198.917C100.699 199.174 100.532 199.42 100.206 199.655L99.6857 199.355ZM96.2681 199.265C95.9773 199.433 95.816 199.623 95.7841 199.834C95.7602 200.046 95.9175 200.249 96.2561 200.445C96.5349 200.606 96.8397 200.687 97.1703 200.69C97.5049 200.69 97.8215 200.603 98.1203 200.431C98.4429 200.245 98.6042 200.055 98.6042 199.862C98.6082 199.666 98.4628 199.483 98.1681 199.313C98.0008 199.217 97.8076 199.144 97.5885 199.096C97.3694 199.048 97.1424 199.036 96.9074 199.061C96.6763 199.084 96.4632 199.152 96.2681 199.265ZM105.422 199.734L97.135 202.629L96.6092 202.325L104.89 199.427L105.422 199.734ZM100.487 202.901C101.618 203.03 102.61 203.083 103.463 203.06C104.319 203.035 104.94 202.911 105.327 202.687C105.566 202.549 105.695 202.403 105.715 202.249C105.743 202.095 105.622 201.94 105.351 201.784C105.072 201.623 104.771 201.553 104.449 201.573C104.13 201.592 103.807 201.686 103.481 201.856L102.943 201.546C103.441 201.29 103.947 201.166 104.46 201.173C104.978 201.178 105.444 201.3 105.859 201.539C106.253 201.766 106.46 202.008 106.48 202.263C106.5 202.518 106.317 202.758 105.93 202.981C105.612 203.165 105.183 203.292 104.646 203.364C104.116 203.435 103.554 203.462 102.961 203.446C102.375 203.43 101.822 203.384 101.3 203.308L103.439 204.543L102.991 204.802L100.093 203.129L100.487 202.901ZM105.682 203.92C105.005 204.311 104.588 204.68 104.433 205.028C104.278 205.375 104.475 205.707 105.024 206.025C105.574 206.342 106.15 206.456 106.751 206.366C107.357 206.279 107.998 206.04 108.675 205.649C109.344 205.262 109.755 204.894 109.906 204.545C110.061 204.197 109.864 203.865 109.314 203.548C108.765 203.23 108.189 203.117 107.588 203.206C106.99 203.294 106.355 203.532 105.682 203.92ZM108.137 205.338C107.791 205.538 107.474 205.691 107.187 205.797C106.909 205.903 106.63 205.956 106.351 205.956C106.072 205.956 105.801 205.88 105.538 205.728C105.279 205.578 105.15 205.423 105.15 205.262C105.15 205.101 105.24 204.939 105.419 204.776C105.606 204.613 105.873 204.431 106.219 204.231C106.562 204.033 106.873 203.881 107.151 203.775C107.434 203.672 107.713 203.621 107.988 203.624C108.267 203.624 108.536 203.698 108.795 203.848C109.057 204 109.189 204.156 109.189 204.317C109.193 204.476 109.103 204.636 108.92 204.797C108.741 204.96 108.48 205.14 108.137 205.338ZM107.547 206.978C108.679 207.106 109.67 207.159 110.523 207.136C111.379 207.111 112.001 206.987 112.387 206.764C112.626 206.626 112.755 206.48 112.775 206.326C112.803 206.171 112.682 206.016 112.411 205.86C112.132 205.699 111.831 205.629 111.509 205.649C111.19 205.668 110.867 205.762 110.541 205.932L110.003 205.622C110.501 205.367 111.007 205.242 111.521 205.249C112.039 205.254 112.505 205.376 112.919 205.615C113.313 205.843 113.52 206.084 113.54 206.339C113.56 206.595 113.377 206.834 112.991 207.057C112.672 207.241 112.244 207.369 111.706 207.44C111.176 207.511 110.614 207.539 110.021 207.523C109.435 207.506 108.882 207.46 108.36 207.385L110.499 208.62L110.051 208.878L107.153 207.205L107.547 206.978ZM111.421 208.579L111.875 208.317L116.859 207.938L117.444 208.276L114.642 209.894L115.263 210.253L114.791 210.525L114.17 210.166L113.202 210.725L112.652 210.408L113.62 209.849L111.421 208.579ZM116.267 208.362L112.467 208.638L114.128 209.597L116.267 208.362Z" fill="white" fill-opacity="0.7" shape-rendering="crispEdges"/>
</g>
<rect x="-2.98023e-08" y="0.5" width="23.8605" height="18.0421" rx="1.5" transform="matrix(0.866025 0.5 -0.866025 0.5 211.039 190.822)" stroke="white"/>
<g style="mix-blend-mode:overlay">
<path d="M199.403 210.599C198.205 210.439 195.741 209.763 195.47 208.333M197.777 213.164C195.919 212.889 191.966 211.726 191.018 209.269M196.559 215.566C194.084 215.174 188.714 213.529 187.034 210.078M194.826 217.91C191.811 217.499 185.218 215.557 182.966 211.076" stroke="white" stroke-width="1.37985" stroke-linecap="round" stroke-linejoin="round"/>
</g>
</g>
<defs>
<filter id="filter0_d_1_254" x="0.408203" y="0.0415039" width="526.318" height="363.041" filterUnits="userSpaceOnUse" color-interpolation-filters="sRGB">
<feFlood flood-opacity="0" result="BackgroundImageFix"/>
<feColorMatrix in="SourceAlpha" type="matrix" values="0 0 0 0 0 0 0 0 0 0 0 0 0 0 0 0 0 0 127 0" result="hardAlpha"/>
<feOffset dy="9"/>
<feGaussianBlur stdDeviation="35"/>
<feComposite in2="hardAlpha" operator="out"/>
<feColorMatrix type="matrix" values="0 0 0 0 0 0 0 0 0 0 0 0 0 0 0 0 0 0 0.25 0"/>
<feBlend mode="normal" in2="BackgroundImageFix" result="effect1_dropShadow_1_254"/>
<feBlend mode="normal" in="SourceGraphic" in2="effect1_dropShadow_1_254" result="shape"/>
</filter>
<filter id="filter1_d_1_254" x="101.108" y="188.257" width="69.3193" height="40.8668" filterUnits="userSpaceOnUse" color-interpolation-filters="sRGB">
<feFlood flood-opacity="0" result="BackgroundImageFix"/>
<feColorMatrix in="SourceAlpha" type="matrix" values="0 0 0 0 0 0 0 0 0 0 0 0 0 0 0 0 0 0 127 0" result="hardAlpha"/>
<feOffset dy="1"/>
<feGaussianBlur stdDeviation="0.5"/>
<feComposite in2="hardAlpha" operator="out"/>
<feColorMatrix type="matrix" values="0 0 0 0 0 0 0 0 0 0 0 0 0 0 0 0 0 0 0.15 0"/>
<feBlend mode="normal" in2="BackgroundImageFix" result="effect1_dropShadow_1_254"/>
<feBlend mode="normal" in="SourceGraphic" in2="effect1_dropShadow_1_254" result="shape"/>
</filter>
<filter id="filter2_d_1_254" x="88.5269" y="194.397" width="31.9248" height="19.2771" filterUnits="userSpaceOnUse" color-interpolation-filters="sRGB">
<feFlood flood-opacity="0" result="BackgroundImageFix"/>
<feColorMatrix in="SourceAlpha" type="matrix" values="0 0 0 0 0 0 0 0 0 0 0 0 0 0 0 0 0 0 127 0" result="hardAlpha"/>
<feOffset dy="1"/>
<feGaussianBlur stdDeviation="0.5"/>
<feComposite in2="hardAlpha" operator="out"/>
<feColorMatrix type="matrix" values="0 0 0 0 0 0 0 0 0 0 0 0 0 0 0 0 0 0 0.15 0"/>
<feBlend mode="normal" in2="BackgroundImageFix" result="effect1_dropShadow_1_254"/>
<feBlend mode="normal" in="SourceGraphic" in2="effect1_dropShadow_1_254" result="shape"/>
</filter>
<linearGradient id="paint0_linear_1_254" x1="0" y1="0" x2="178" y2="284.248" gradientUnits="userSpaceOnUse">
<stop stop-color="white" stop-opacity="0.4"/>
<stop offset="1" stop-color="white" stop-opacity="0.1"/>
</linearGradient>
<linearGradient id="paint1_linear_1_254" x1="-1.21225e-06" y1="9.5" x2="167.5" y2="284" gradientUnits="userSpaceOnUse">
<stop stop-color="white"/>
<stop offset="1" stop-color="white" stop-opacity="0.1"/>
</linearGradient>
<linearGradient id="paint2_linear_1_254" x1="9.89486" y1="0" x2="9.89486" y2="19.7897" gradientUnits="userSpaceOnUse">
<stop stop-color="white"/>
<stop offset="0.479167" stop-opacity="0.5"/>
<stop offset="0.9375" stop-color="white"/>
</linearGradient>
<linearGradient id="paint3_linear_1_254" x1="9.89486" y1="0" x2="9.89486" y2="19.7897" gradientUnits="userSpaceOnUse">
<stop stop-color="white"/>
<stop offset="0.479167" stop-opacity="0.5"/>
<stop offset="0.9375" stop-color="white"/>
</linearGradient>
</defs>
</svg>
