<svg width="467" height="304" viewBox="0 0 467 304" fill="none" xmlns="http://www.w3.org/2000/svg">
<g filter="url(#filter0_d_1_272)">
<g filter="url(#filter1_b_1_272)">
<rect width="178" height="284.248" rx="13.7985" transform="matrix(0.866025 0.5 -0.866025 0.5 275.166 14)" fill="url(#paint0_linear_1_272)"/>
<rect x="-2.05613e-08" y="0.344961" width="177.31" height="283.558" rx="13.4535" transform="matrix(0.866025 0.5 -0.866025 0.5 275.465 14.1725)" stroke="url(#paint1_linear_1_272)" stroke-width="0.689923"/>
</g>
<g filter="url(#filter2_b_1_272)">
<path d="M118.624 104.38L272.776 193.38L207.052 231.326C195.786 237.83 190.153 241.083 183.152 241.083C176.152 241.083 170.519 237.83 159.253 231.326L52.8996 169.923C41.6332 163.418 36 160.166 36 156.124C36 152.083 41.6332 148.83 52.8996 142.326L118.624 104.38Z" fill="#1F1E30"/>
</g>
<path d="M348.934 86.7938L347.719 87.4954L345.718 86.3405L339.427 89.9729L337.921 89.1036L344.213 85.4712L342.212 84.3163L343.428 83.6146L348.934 86.7938ZM351.173 93.1654C350.958 93.2896 350.75 93.3931 350.549 93.4759L346.193 90.9611C345.799 91.2302 345.613 91.5117 345.634 91.8056C345.656 92.0995 345.86 92.3582 346.247 92.5818C346.806 92.9046 347.444 92.9957 348.161 92.855L349.785 93.7926C349.04 94.0244 348.237 94.1072 347.376 94.0409C346.523 93.9706 345.742 93.7305 345.032 93.3207C344.458 92.9895 344.067 92.619 343.86 92.2092C343.666 91.7994 343.673 91.3854 343.881 90.9673C344.096 90.5534 344.508 90.1705 345.118 89.8186C345.734 89.4626 346.401 89.2225 347.118 89.0983C347.835 88.9742 348.545 88.97 349.248 89.0859C349.95 89.2018 350.596 89.4295 351.184 89.7689C351.75 90.096 352.134 90.4582 352.334 90.8556C352.542 91.2571 352.542 91.6586 352.334 92.0602C352.141 92.4617 351.754 92.8301 351.173 93.1654ZM350.044 92.0167C350.424 91.789 350.592 91.5303 350.549 91.2405C350.513 90.9466 350.298 90.6859 349.904 90.4582C349.531 90.2429 349.101 90.127 348.613 90.1105C348.14 90.0939 347.674 90.185 347.215 90.3837L350.044 92.0167ZM351.756 93.6509C352.372 93.2949 353.035 93.0569 353.745 92.9369C354.462 92.8127 355.168 92.8065 355.864 92.9182C356.567 93.0259 357.205 93.2452 357.778 93.5764C358.517 94.0028 358.94 94.4623 359.047 94.9549C359.169 95.4475 358.979 95.9339 358.477 96.4141L356.853 95.4765C357.025 95.2778 357.079 95.077 357.015 94.8742C356.964 94.6713 356.789 94.483 356.488 94.3091C356.057 94.0607 355.559 93.9552 354.993 93.9924C354.434 94.0256 353.867 94.2077 353.294 94.5389C352.727 94.8659 352.412 95.1929 352.347 95.5199C352.29 95.8428 352.476 96.1284 352.906 96.3768C353.516 96.7287 354.186 96.8011 354.917 96.5941L356.541 97.5317C355.731 97.8091 354.892 97.9167 354.025 97.8546C353.157 97.7925 352.358 97.5504 351.627 97.1281C351.053 96.797 350.669 96.4306 350.476 96.0291C350.289 95.6234 350.3 95.2157 350.508 94.8059C350.723 94.3919 351.139 94.0069 351.756 93.6509ZM365.033 97.7774C365.485 98.0382 365.786 98.328 365.936 98.6467C366.094 98.9613 366.076 99.2863 365.883 99.6216C365.703 99.9569 365.345 100.28 364.807 100.59L361.312 102.608L359.806 101.739L363.097 99.8389C363.57 99.5657 363.814 99.2883 363.829 99.0068C363.85 98.7212 363.656 98.4604 363.248 98.2245C362.832 97.9844 362.373 97.8685 361.871 97.8767C361.384 97.885 360.903 98.0258 360.43 98.299L357.139 100.199L355.633 99.3297L363.592 94.7348L365.098 95.6041L362.355 97.1875C362.807 97.1503 363.266 97.1834 363.732 97.2869C364.205 97.3862 364.639 97.5497 365.033 97.7774Z" fill="white"/>
<path d="M368.705 102.53C369.443 102.104 370.268 101.818 371.179 101.673C372.103 101.528 373.014 101.528 373.91 101.673C374.821 101.818 375.635 102.097 376.352 102.511C377.19 102.996 377.71 103.544 377.911 104.157C378.112 104.77 377.958 105.368 377.449 105.951L375.717 104.952C375.903 104.645 375.929 104.349 375.792 104.064C375.663 103.782 375.394 103.524 374.986 103.288C374.548 103.035 374.054 102.87 373.502 102.791C372.964 102.712 372.412 102.725 371.845 102.828C371.286 102.936 370.756 103.134 370.254 103.424C369.759 103.71 369.415 104.016 369.221 104.343C369.042 104.67 369.017 104.991 369.146 105.306C369.289 105.62 369.58 105.904 370.017 106.156C370.426 106.392 370.874 106.547 371.361 106.622C371.863 106.697 372.379 106.68 372.91 106.572L374.642 107.572C373.623 107.87 372.584 107.961 371.523 107.845C370.476 107.729 369.529 107.427 368.683 106.939C367.966 106.525 367.479 106.057 367.221 105.535C366.977 105.014 366.977 104.488 367.221 103.958C367.472 103.432 367.966 102.956 368.705 102.53ZM376.11 111.264C375.537 110.933 375.146 110.562 374.938 110.152C374.737 109.739 374.737 109.32 374.938 108.898C375.146 108.48 375.555 108.095 376.164 107.743C376.774 107.391 377.444 107.158 378.175 107.042C378.914 106.93 379.642 106.936 380.359 107.06C381.083 107.18 381.732 107.406 382.305 107.737C382.879 108.068 383.27 108.443 383.478 108.861C383.693 109.275 383.7 109.693 383.499 110.115C383.305 110.542 382.904 110.931 382.294 111.283C381.685 111.634 381.007 111.864 380.262 111.972C379.523 112.084 378.788 112.077 378.057 111.953C377.34 111.829 376.691 111.599 376.11 111.264ZM377.423 110.506C377.695 110.664 378.014 110.773 378.38 110.836C378.76 110.898 379.154 110.893 379.563 110.823C379.971 110.753 380.366 110.608 380.746 110.388C381.312 110.061 381.595 109.724 381.595 109.376C381.61 109.029 381.402 108.731 380.972 108.482C380.541 108.234 380.025 108.114 379.423 108.122C378.835 108.13 378.258 108.298 377.691 108.625C377.125 108.952 376.827 109.285 376.799 109.625C376.784 109.964 376.992 110.258 377.423 110.506ZM387.851 110.231C387.586 110.078 387.446 109.902 387.432 109.704C387.432 109.505 387.557 109.333 387.808 109.188C388.059 109.043 388.353 108.973 388.69 108.977C389.042 108.981 389.35 109.06 389.615 109.213C389.881 109.366 390.013 109.542 390.013 109.741C390.028 109.939 389.909 110.111 389.658 110.256C389.407 110.401 389.106 110.471 388.755 110.467C388.418 110.463 388.117 110.384 387.851 110.231ZM387.884 111.07L381.926 114.51L380.42 113.64L386.378 110.2L387.884 111.07ZM392.759 113.785C393.469 114.195 393.817 114.656 393.802 115.17C393.795 115.679 393.39 116.165 392.587 116.629L389.092 118.647L387.586 117.778L390.877 115.878C391.35 115.604 391.594 115.327 391.608 115.046C391.63 114.76 391.436 114.499 391.028 114.263C390.612 114.023 390.153 113.907 389.651 113.915C389.163 113.924 388.683 114.064 388.21 114.338L384.919 116.238L383.413 115.368L389.371 111.928L390.877 112.798L390.135 113.226C390.594 113.193 391.049 113.224 391.501 113.319C391.967 113.415 392.386 113.57 392.759 113.785Z" fill="#1F1E30"/>
<path d="M338.502 72.2643C336.611 71.1726 334.202 70.4292 331.579 70.128C328.957 69.8269 326.239 69.9814 323.768 70.5722C321.298 71.163 319.186 72.1635 317.701 73.4471C316.215 74.7307 315.422 76.2398 315.422 77.7836C315.422 79.3274 316.215 80.8366 317.701 82.1202C319.186 83.4038 321.298 84.4043 323.768 84.995C326.239 85.5858 328.957 85.7404 331.579 85.4392C334.202 85.1381 336.611 84.3946 338.502 83.303L333.722 80.5433C332.776 81.0891 331.572 81.4608 330.261 81.6114C328.949 81.762 327.59 81.6847 326.355 81.3893C325.12 81.0939 324.064 80.5937 323.321 79.9519C322.579 79.3101 322.182 78.5555 322.182 77.7836C322.182 77.0117 322.579 76.2572 323.321 75.6154C324.064 74.9735 325.12 74.4733 326.355 74.1779C327.59 73.8825 328.949 73.8052 330.261 73.9558C331.572 74.1064 332.776 74.4781 333.722 75.0239L338.502 72.2643Z" fill="white"/>
<path d="M338.502 72.2643C337.246 71.5394 335.756 70.9645 334.116 70.5722C332.475 70.1799 330.717 69.9781 328.942 69.9781C327.166 69.9781 325.408 70.1799 323.768 70.5722C322.128 70.9645 320.637 71.5394 319.382 72.2643L324.162 75.0239C324.79 74.6615 325.535 74.3741 326.355 74.1779C327.175 73.9818 328.054 73.8808 328.942 73.8808C329.83 73.8808 330.709 73.9818 331.529 74.1779C332.349 74.3741 333.094 74.6615 333.722 75.0239L338.502 72.2643Z" fill="#1F1E30"/>
<circle r="3.44961" transform="matrix(0.866025 0.5 -0.866025 0.5 328.942 77.7836)" fill="#1F1E30"/>
<path d="M331.929 79.5084C332.322 79.2819 332.633 79.013 332.845 78.7171C333.058 78.4211 333.167 78.1039 333.167 77.7836C333.167 77.4633 333.058 77.1461 332.845 76.8501C332.633 76.5542 332.322 76.2853 331.929 76.0588C331.537 75.8323 331.071 75.6526 330.559 75.53C330.046 75.4074 329.497 75.3444 328.942 75.3444C328.387 75.3444 327.838 75.4074 327.325 75.53C326.813 75.6526 326.347 75.8323 325.954 76.0588L328.942 77.7836L331.929 79.5084Z" fill="white"/>
<g opacity="0.9">
<rect opacity="0.75" x="4.47035e-08" y="-0.25" width="19.2897" height="19.2897" rx="9.64486" transform="matrix(-0.866025 -0.5 0.866026 -0.5 184.154 230.496)" stroke="url(#paint2_linear_1_272)" stroke-width="0.5"/>
<rect opacity="0.7" x="4.47035e-08" y="-0.25" width="19.2897" height="19.2897" rx="9.64486" transform="matrix(-0.866025 -0.5 0.866026 -0.5 173.808 224.522)" stroke="url(#paint3_linear_1_272)" stroke-width="0.5"/>
</g>
<g filter="url(#filter3_d_1_272)">
<path d="M279.501 37.3621L280.652 38.0265L278.222 39.4298L270.629 35.046L271.919 34.3009L278.361 38.0203L279.501 37.3621ZM273.902 39.8871C274.275 40.1023 274.515 40.3569 274.623 40.6508C274.73 40.9447 274.68 41.2593 274.472 41.5946C274.257 41.9341 273.87 42.2652 273.31 42.5881C272.751 42.911 272.181 43.1325 271.6 43.2525C271.012 43.3767 270.464 43.4077 269.955 43.3456C269.439 43.2877 268.994 43.1511 268.621 42.9358C268.205 42.6957 267.958 42.4246 267.879 42.1224C267.793 41.8244 267.897 41.5118 268.191 41.1848C267.56 41.3752 266.947 41.4477 266.352 41.4021C265.764 41.3607 265.23 41.2014 264.75 40.924C264.011 40.4976 263.696 40.0133 263.803 39.471C263.918 38.9329 264.398 38.4196 265.244 37.9311C266.09 37.4427 266.979 37.1653 267.911 37.0991C268.844 37.0411 269.679 37.2253 270.417 37.6517C270.898 37.9291 271.174 38.2375 271.245 38.5769C271.324 38.9205 271.199 39.2744 270.869 39.6387C271.435 39.469 271.98 39.4069 272.504 39.4524C273.02 39.5021 273.486 39.647 273.902 39.8871ZM272.493 40.4769C272.106 40.2534 271.679 40.152 271.213 40.1727C270.747 40.2017 270.295 40.3424 269.858 40.5949C269.421 40.8474 269.177 41.1082 269.127 41.3773C269.084 41.6505 269.256 41.8989 269.643 42.1224C270.03 42.3459 270.464 42.4432 270.944 42.4142C271.418 42.3894 271.869 42.2528 272.299 42.0044C272.73 41.7561 272.966 41.4953 273.009 41.2221C273.052 40.9489 272.88 40.7005 272.493 40.4769ZM269.288 38.3782C268.851 38.1257 268.36 38.0119 267.815 38.0367C267.277 38.0657 266.757 38.225 266.255 38.5148C265.753 38.8046 265.477 39.1047 265.427 39.4152C265.384 39.7298 265.581 40.0133 266.019 40.2658C266.463 40.5225 266.951 40.626 267.481 40.5763C268.012 40.5349 268.517 40.3755 268.998 40.0982C269.471 39.825 269.747 39.5331 269.826 39.2227C269.905 38.9122 269.725 38.6307 269.288 38.3782ZM265.568 47.0083C265.067 47.298 264.547 47.4947 264.009 47.5981C263.478 47.7058 262.969 47.7223 262.482 47.6478C261.987 47.5774 261.55 47.4326 261.17 47.2132C260.689 46.9358 260.424 46.6254 260.374 46.2818C260.324 45.9465 260.51 45.6194 260.933 45.3007L260.879 45.2697C260.205 45.4849 259.571 45.5905 258.976 45.5863C258.381 45.5905 257.821 45.4414 257.298 45.1393C256.66 44.7708 256.352 44.3486 256.373 43.8726C256.402 43.4007 256.81 42.937 257.599 42.4817C258.409 42.0139 259.266 41.7552 260.17 41.7055C261.08 41.66 261.976 41.8504 262.858 42.2768L261.643 42.9784C261.17 42.7549 260.671 42.6452 260.148 42.6493C259.632 42.6576 259.148 42.7921 258.696 43.0529C258.273 43.2972 258.062 43.5476 258.062 43.8043C258.054 44.065 258.226 44.2969 258.578 44.4997C259.001 44.7439 259.488 44.835 260.04 44.7729C260.585 44.715 261.166 44.508 261.783 44.152L262.073 43.9843L263.084 44.568L262.794 44.7357C261.611 45.4021 261.424 45.9692 262.234 46.437C262.586 46.6398 262.969 46.7371 263.385 46.7288C263.801 46.7206 264.195 46.6088 264.568 46.3935C264.941 46.1783 265.138 45.932 265.16 45.6546C265.188 45.3814 265.013 45.1061 264.633 44.8288L265.837 44.1334C266.533 44.5928 266.859 45.071 266.816 45.5677C266.78 46.0686 266.364 46.5488 265.568 47.0083ZM258.107 51.316C257.605 51.6057 257.086 51.8024 256.548 51.9058C256.017 52.0135 255.508 52.03 255.021 51.9555C254.526 51.8851 254.089 51.7403 253.709 51.5209C253.228 51.2435 252.963 50.9331 252.913 50.5895C252.863 50.2542 253.049 49.9271 253.472 49.6084L253.418 49.5774C252.744 49.7926 252.11 49.8982 251.515 49.894C250.919 49.8982 250.36 49.7491 249.837 49.447C249.199 49.0785 248.89 48.6563 248.912 48.1803C248.941 47.7084 249.349 47.2447 250.138 46.7894C250.948 46.3216 251.805 46.0629 252.708 46.0132C253.619 45.9677 254.515 46.1581 255.397 46.5845L254.182 47.2861C253.709 47.0626 253.21 46.9529 252.687 46.957C252.171 46.9653 251.687 47.0998 251.235 47.3606C250.812 47.6049 250.6 47.8553 250.6 48.112C250.593 48.3728 250.765 48.6046 251.117 48.8074C251.54 49.0516 252.027 49.1427 252.579 49.0806C253.124 49.0227 253.705 48.8157 254.322 48.4597L254.612 48.292L255.623 48.8757L255.333 49.0434C254.15 49.7098 253.963 50.2769 254.773 50.7447C255.125 50.9475 255.508 51.0448 255.924 51.0365C256.34 51.0283 256.734 50.9165 257.107 50.7012C257.48 50.486 257.677 50.2397 257.699 49.9623C257.727 49.6891 257.552 49.4138 257.172 49.1365L258.376 48.4411C259.072 48.9005 259.398 49.3787 259.355 49.8754C259.319 50.3763 258.903 50.8565 258.107 51.316ZM243.985 58.178L240.102 52.6704L241.393 51.9253L245.093 57.377L248.857 55.2038L249.922 55.8185L244.91 58.712L243.985 58.178ZM242.223 58.8849L243.374 59.5493L240.943 60.9526L233.35 56.5688L234.641 55.8237L241.083 59.543L242.223 58.8849ZM232.375 63.5396C233.35 63.9536 234.214 63.9432 234.967 63.5086C235.512 63.194 235.702 62.8317 235.537 62.4219C235.379 62.0163 234.838 61.5464 233.913 61.0124L233.537 60.8075C233.816 61.0931 233.892 61.4057 233.763 61.7451C233.634 62.0846 233.325 62.395 232.838 62.6765C232.092 63.107 231.285 63.3161 230.418 63.3037C229.55 63.2912 228.711 63.0511 227.901 62.5834C227.414 62.3019 227.073 61.9935 226.88 61.6582C226.693 61.327 226.679 60.9834 226.837 60.6274C227.001 60.2756 227.367 59.9361 227.934 59.6091C229.031 58.9758 230.124 58.7377 231.214 58.895C232.304 59.0523 233.444 59.4746 234.634 60.1617C235.996 60.9483 236.796 61.6623 237.032 62.304C237.269 62.9456 236.889 63.5541 235.892 64.1295C235.146 64.56 234.365 64.767 233.548 64.7504C232.723 64.738 231.945 64.5579 231.214 64.2102L232.375 63.5396ZM232.289 60.2114C231.823 59.9423 231.296 59.7954 230.708 59.7706C230.128 59.7499 229.572 59.8927 229.041 60.199C228.59 60.4598 228.364 60.7433 228.364 61.0497C228.357 61.3601 228.59 61.652 229.063 61.9252C229.572 62.2191 230.099 62.366 230.644 62.366C231.189 62.366 231.694 62.2315 232.16 61.9624C232.583 61.7182 232.827 61.4326 232.892 61.1056C232.956 60.7785 232.755 60.4805 232.289 60.2114ZM228.374 68.4825C227.872 68.7723 227.352 68.9689 226.815 69.0724C226.284 69.18 225.775 69.1966 225.287 69.1221C224.793 69.0517 224.355 68.9068 223.975 68.6874C223.495 68.4101 223.23 68.0996 223.179 67.756C223.129 67.4207 223.316 67.0937 223.739 66.7749L223.685 66.7439C223.011 66.9592 222.376 67.0647 221.781 67.0606C221.186 67.0647 220.627 66.9157 220.104 66.6135C219.465 66.2451 219.157 65.8229 219.179 65.3468C219.207 64.8749 219.616 64.4113 220.405 63.9559C221.215 63.4882 222.072 63.2294 222.975 63.1798C223.886 63.1342 224.782 63.3246 225.664 63.751L224.448 64.4527C223.975 64.2291 223.477 64.1194 222.954 64.1236C222.437 64.1318 221.953 64.2664 221.502 64.5272C221.079 64.7714 220.867 65.0219 220.867 65.2785C220.86 65.5393 221.032 65.7711 221.383 65.9739C221.806 66.2182 222.294 66.3092 222.846 66.2472C223.391 66.1892 223.972 65.9822 224.588 65.6262L224.879 65.4586L225.89 66.0422L225.599 66.2099C224.416 66.8764 224.23 67.4435 225.04 67.9112C225.391 68.1141 225.775 68.2114 226.191 68.2031C226.607 68.1948 227.001 68.083 227.374 67.8678C227.747 67.6525 227.944 67.4062 227.965 67.1289C227.994 66.8557 227.818 66.5804 227.438 66.303L228.643 65.6076C229.338 66.0671 229.665 66.5452 229.622 67.0419C229.586 67.5428 229.17 68.023 228.374 68.4825ZM217.317 74.8664C216.815 75.1562 216.295 75.3528 215.757 75.4563C215.227 75.564 214.718 75.5805 214.23 75.506C213.735 75.4356 213.298 75.2907 212.918 75.0713C212.438 74.794 212.172 74.4835 212.122 74.14C212.072 73.8046 212.258 73.4776 212.681 73.1589L212.628 73.1278C211.954 73.3431 211.319 73.4486 210.724 73.4445C210.129 73.4486 209.57 73.2996 209.046 72.9974C208.408 72.629 208.1 72.2068 208.121 71.7307C208.15 71.2588 208.559 70.7952 209.347 70.3399C210.158 69.8721 211.014 69.6134 211.918 69.5637C212.828 69.5182 213.725 69.7086 214.606 70.135L213.391 70.8366C212.918 70.6131 212.42 70.5034 211.896 70.5075C211.38 70.5158 210.896 70.6503 210.444 70.9111C210.021 71.1553 209.81 71.4058 209.81 71.6624C209.803 71.9232 209.975 72.155 210.326 72.3579C210.749 72.6021 211.237 72.6932 211.789 72.6311C212.334 72.5731 212.914 72.3662 213.531 72.0102L213.821 71.8425L214.832 72.4262L214.542 72.5938C213.359 73.2603 213.172 73.8274 213.983 74.2952C214.334 74.498 214.718 74.5953 215.133 74.587C215.549 74.5787 215.944 74.467 216.316 74.2517C216.689 74.0365 216.886 73.7902 216.908 73.5128C216.937 73.2396 216.761 72.9643 216.381 72.687L217.586 71.9915C218.281 72.451 218.607 72.9291 218.564 73.4259C218.528 73.9268 218.113 74.407 217.317 74.8664ZM210.329 76.5911C210.702 76.8063 210.942 77.0609 211.049 77.3548C211.157 77.6487 211.107 77.9633 210.899 78.2986C210.684 78.6381 210.296 78.9692 209.737 79.2921C209.178 79.615 208.608 79.8365 208.027 79.9565C207.439 80.0807 206.891 80.1118 206.382 80.0497C205.865 79.9917 205.421 79.8551 205.048 79.6398C204.632 79.3998 204.385 79.1286 204.306 78.8264C204.22 78.5284 204.324 78.2158 204.618 77.8888C203.987 78.0792 203.374 78.1517 202.779 78.1061C202.191 78.0648 201.657 77.9054 201.176 77.628C200.438 77.2017 200.122 76.7173 200.23 76.1751C200.345 75.6369 200.825 75.1236 201.671 74.6351C202.517 74.1467 203.406 73.8693 204.338 73.8031C205.27 73.7451 206.106 73.9294 206.844 74.3557C207.325 74.6331 207.601 74.9415 207.672 75.2809C207.751 75.6245 207.626 75.9784 207.296 76.3427C207.862 76.173 208.407 76.1109 208.931 76.1564C209.447 76.2061 209.913 76.351 210.329 76.5911ZM208.92 77.181C208.533 76.9574 208.106 76.856 207.64 76.8767C207.174 76.9057 206.722 77.0464 206.285 77.2989C205.848 77.5514 205.604 77.8122 205.554 78.0813C205.511 78.3545 205.683 78.6029 206.07 78.8264C206.457 79.05 206.891 79.1472 207.371 79.1183C207.844 79.0934 208.296 78.9568 208.726 78.7084C209.156 78.4601 209.393 78.1993 209.436 77.9261C209.479 77.6529 209.307 77.4045 208.92 77.181ZM205.715 75.0822C205.278 74.8297 204.786 74.7159 204.241 74.7407C203.704 74.7697 203.184 74.9291 202.682 75.2188C202.18 75.5086 201.904 75.8087 201.854 76.1192C201.811 76.4338 202.008 76.7173 202.445 76.9698C202.89 77.2265 203.378 77.33 203.908 77.2803C204.439 77.2389 204.944 77.0795 205.425 76.8022C205.898 76.529 206.174 76.2371 206.253 75.9267C206.332 75.6162 206.152 75.3347 205.715 75.0822ZM197.683 79.6949C197.217 79.492 196.761 79.3906 196.317 79.3906C195.865 79.3947 195.446 79.5086 195.058 79.7321C194.513 80.0467 194.323 80.4048 194.488 80.8063C194.653 81.2161 195.202 81.6901 196.134 82.2283L196.51 82.4332C196.238 82.1434 196.166 81.8246 196.295 81.4769C196.424 81.1375 196.729 80.8291 197.209 80.5517C197.955 80.1212 198.762 79.9122 199.629 79.9246C200.504 79.9412 201.343 80.1813 202.146 80.6449C202.633 80.9264 202.974 81.2348 203.168 81.5701C203.361 81.9054 203.375 82.2489 203.211 82.6008C203.053 82.9568 202.691 83.2983 202.124 83.6253C201.027 84.2587 199.937 84.4988 198.855 84.3456C197.772 84.2007 196.639 83.7868 195.456 83.1038C194.116 82.3297 193.305 81.6177 193.026 80.9678C192.739 80.322 193.083 79.7176 194.058 79.1546C194.811 78.72 195.614 78.5006 196.467 78.4965C197.32 78.5006 198.113 78.6765 198.844 79.0243L197.683 79.6949ZM197.769 83.023C198.235 83.2921 198.758 83.437 199.339 83.4577C199.92 83.4867 200.479 83.3459 201.017 83.0355C201.461 82.7788 201.687 82.4953 201.694 82.1848C201.694 81.8785 201.454 81.5866 200.974 81.3093C200.464 81.0154 199.941 80.8663 199.403 80.8622C198.858 80.8622 198.353 80.9967 197.887 81.2658C197.614 81.4231 197.414 81.6011 197.285 81.7998C197.156 82.0068 197.123 82.2158 197.188 82.4269C197.26 82.6422 197.453 82.8409 197.769 83.023ZM190.321 82.5166C189.956 83.6467 189.805 84.6319 189.87 85.4723C189.934 86.3209 190.293 86.9335 190.945 87.3102C191.332 87.5338 191.738 87.6559 192.161 87.6766C192.576 87.7014 192.996 87.5917 193.419 87.3475C193.856 87.095 194.043 86.8218 193.978 86.5279C193.921 86.2381 193.645 85.9338 193.15 85.6151L194.344 84.9259C195.161 85.4557 195.559 85.9918 195.538 86.5341C195.509 87.0805 195.118 87.571 194.365 88.0057C193.627 88.432 192.852 88.6514 192.042 88.6639C191.232 88.6846 190.483 88.4962 189.794 88.0988C189.242 87.7801 188.855 87.3578 188.633 86.8321C188.404 86.3105 188.31 85.76 188.353 85.1804C188.404 84.605 188.536 84.0566 188.751 83.535L185.148 85.6151L184.148 85.0376L189.418 81.9951L190.321 82.5166ZM185.323 91.736L186.474 92.4004L184.043 93.8037L176.45 89.4199L177.741 88.6748L184.183 92.3941L185.323 91.736ZM177.938 93.0066C176.727 92.307 175.562 91.8827 174.443 91.7337C173.332 91.5888 172.274 91.8062 171.27 92.3857C170.267 92.9652 169.894 93.5779 170.152 94.2237C170.41 94.8694 171.141 95.54 172.346 96.2355C173.543 96.9268 174.698 97.3449 175.809 97.4897C176.927 97.6388 177.989 97.4235 178.992 96.844C179.996 96.2644 180.373 95.6539 180.122 95.0122C179.871 94.3706 179.143 93.7021 177.938 93.0066ZM173.572 95.5276C172.697 95.0226 172.134 94.5734 171.883 94.1802C171.632 93.7869 171.815 93.4123 172.432 93.0563C173.056 92.6962 173.708 92.5885 174.389 92.7334C175.07 92.8783 175.848 93.2033 176.723 93.7083C177.591 94.2092 178.146 94.6542 178.39 95.0433C178.634 95.4324 178.444 95.807 177.82 96.1672C177.203 96.5232 176.555 96.6287 175.873 96.4838C175.199 96.3431 174.432 96.0244 173.572 95.5276ZM167.398 95.7514C167.032 96.8815 166.882 97.8667 166.946 98.7071C167.011 99.5557 167.369 100.168 168.022 100.545C168.409 100.769 168.814 100.891 169.237 100.911C169.653 100.936 170.073 100.827 170.496 100.582C170.933 100.33 171.119 100.057 171.055 99.7626C170.997 99.4729 170.721 99.1686 170.227 98.8499L171.42 98.1606C172.238 98.6905 172.636 99.2266 172.614 99.7689C172.586 100.315 172.195 100.806 171.442 101.24C170.703 101.667 169.929 101.886 169.119 101.899C168.309 101.919 167.559 101.731 166.871 101.334C166.319 101.015 165.932 100.593 165.71 100.067C165.48 99.5453 165.387 98.9948 165.43 98.4152C165.48 97.8398 165.613 97.2913 165.828 96.7698L162.225 98.8499L161.225 98.2724L166.495 95.2299L167.398 95.7514ZM164.77 102.895C165.143 103.11 165.383 103.364 165.49 103.658C165.598 103.952 165.548 104.267 165.34 104.602C165.125 104.942 164.738 105.273 164.178 105.596C163.619 105.918 163.049 106.14 162.468 106.26C161.88 106.384 161.332 106.415 160.823 106.353C160.307 106.295 159.862 106.159 159.489 105.943C159.073 105.703 158.826 105.432 158.747 105.13C158.661 104.832 158.765 104.519 159.059 104.192C158.428 104.383 157.815 104.455 157.22 104.41C156.632 104.368 156.098 104.209 155.617 103.931C154.879 103.505 154.564 103.021 154.671 102.478C154.786 101.94 155.266 101.427 156.112 100.939C156.958 100.45 157.847 100.173 158.779 100.107C159.711 100.049 160.547 100.233 161.285 100.659C161.766 100.937 162.042 101.245 162.113 101.584C162.192 101.928 162.067 102.282 161.737 102.646C162.303 102.476 162.848 102.414 163.372 102.46C163.888 102.51 164.354 102.654 164.77 102.895ZM163.361 103.484C162.974 103.261 162.547 103.159 162.081 103.18C161.615 103.209 161.163 103.35 160.726 103.602C160.289 103.855 160.045 104.116 159.995 104.385C159.952 104.658 160.124 104.906 160.511 105.13C160.898 105.353 161.332 105.451 161.812 105.422C162.285 105.397 162.737 105.26 163.167 105.012C163.598 104.764 163.834 104.503 163.877 104.23C163.92 103.956 163.748 103.708 163.361 103.484ZM160.156 101.386C159.719 101.133 159.228 101.019 158.683 101.044C158.145 101.073 157.625 101.232 157.123 101.522C156.621 101.812 156.345 102.112 156.295 102.423C156.252 102.737 156.449 103.021 156.887 103.273C157.331 103.53 157.819 103.633 158.349 103.584C158.88 103.542 159.385 103.383 159.866 103.106C160.339 102.832 160.615 102.541 160.694 102.23C160.773 101.92 160.593 101.638 160.156 101.386Z" fill="white"/>
</g>
<g filter="url(#filter4_d_1_272)">
<path d="M74.7337 148.163C74.4804 148.309 74.1816 148.412 73.8375 148.473C73.4933 148.534 73.1181 148.53 72.7118 148.461C72.3103 148.389 71.904 148.234 71.4929 147.997L70.5895 147.475L68.5676 148.643L67.7502 148.171L72.7333 145.294L74.4541 146.287C74.8365 146.508 75.0922 146.733 75.2212 146.962C75.3599 147.191 75.3814 147.408 75.2858 147.612C75.195 147.819 75.0109 148.003 74.7337 148.163ZM72.1597 147.612C72.4704 147.791 72.7715 147.885 73.0631 147.894C73.3595 147.899 73.6367 147.827 73.8948 147.678C74.4397 147.364 74.4039 147.028 73.7873 146.672L72.8839 146.151L71.2563 147.091L72.1597 147.612ZM81.6937 150.467L76.7106 153.344L75.8933 152.872L78.0729 151.614L75.7283 150.26L73.5487 151.519L72.7313 151.047L77.7144 148.17L78.5318 148.642L76.3951 149.875L78.7397 151.229L80.8763 149.995L81.6937 150.467ZM84.3041 151.974L79.321 154.851L78.5037 154.379L83.4867 151.502L84.3041 151.974ZM82.5881 155.976L84.2731 156.949L83.6134 157.33L81.1111 155.885L86.0942 153.008L86.9116 153.48L82.5881 155.976ZM90.8144 155.733L85.8313 158.61L85.014 158.138L89.997 155.261L90.8144 155.733ZM94.6049 159.635C94.3516 159.782 94.0528 159.885 93.7087 159.946C93.3645 160.006 92.9893 160.002 92.583 159.933C92.1815 159.862 91.7752 159.707 91.3641 159.47L90.4607 158.948L88.4388 160.116L87.6214 159.644L92.6045 156.767L94.3253 157.76C94.7077 157.981 94.9634 158.206 95.0925 158.435C95.2311 158.664 95.2526 158.881 95.157 159.085C95.0662 159.292 94.8822 159.475 94.6049 159.635ZM92.0309 159.085C92.3416 159.264 92.6428 159.358 92.9343 159.366C93.2307 159.372 93.5079 159.3 93.766 159.151C94.311 158.836 94.2751 158.501 93.6585 158.145L92.7551 157.624L91.1275 158.563L92.0309 159.085ZM97.7434 160.495L96.2807 161.34L98.0015 162.333L97.3347 162.718L95.6139 161.725L94.0867 162.606L96.0226 163.724L95.3558 164.109L92.6026 162.519L97.5928 159.638L100.346 161.228L99.6792 161.613L97.7434 160.495ZM109.89 166.747L104.907 169.624L104.09 169.152L107.503 167.181L102.57 168.274L102.004 167.947L103.889 165.095L100.476 167.065L99.659 166.593L104.642 163.717L105.524 164.226L103.366 167.492L109.016 166.242L109.89 166.747ZM108.921 171.999C108.458 171.731 108.137 171.422 107.961 171.072C107.793 170.721 107.788 170.368 107.946 170.012C108.114 169.656 108.441 169.337 108.928 169.056C109.416 168.774 109.966 168.587 110.578 168.493C111.194 168.402 111.804 168.406 112.406 168.505C113.018 168.605 113.555 168.788 114.019 169.056C114.488 169.326 114.805 169.637 114.973 169.987C115.15 170.338 115.157 170.69 114.994 171.043C114.832 171.396 114.507 171.713 114.019 171.995C113.532 172.276 112.979 172.465 112.363 172.562C111.751 172.656 111.139 172.653 110.527 172.554C109.925 172.454 109.39 172.269 108.921 171.999ZM109.631 171.589C109.961 171.78 110.329 171.907 110.735 171.97C111.146 172.031 111.562 172.022 111.983 171.945C112.413 171.868 112.812 171.723 113.18 171.511C113.548 171.298 113.797 171.069 113.926 170.823C114.06 170.581 114.072 170.342 113.962 170.107C113.852 169.873 113.632 169.66 113.302 169.47C112.972 169.279 112.604 169.152 112.198 169.089C111.792 169.025 111.376 169.031 110.95 169.106C110.53 169.183 110.135 169.328 109.767 169.54C109.399 169.753 109.146 169.982 109.007 170.227C108.878 170.473 108.866 170.714 108.972 170.952C109.081 171.186 109.301 171.399 109.631 171.589ZM115.626 175.812L116.473 173.999L115.849 173.639L113.855 174.79L113.038 174.318L118.021 171.441L119.742 172.434C120.124 172.655 120.38 172.88 120.509 173.109C120.643 173.341 120.662 173.559 120.567 173.763C120.476 173.97 120.292 174.154 120.014 174.314C119.689 174.501 119.297 174.617 118.839 174.662C118.389 174.706 117.921 174.642 117.433 174.471L116.602 176.375L115.626 175.812ZM116.501 173.262L117.405 173.784C117.711 173.961 118.016 174.049 118.322 174.049C118.633 174.052 118.917 173.978 119.176 173.829C119.434 173.68 119.558 173.52 119.548 173.349C119.544 173.175 119.386 172.999 119.075 172.819L118.172 172.298L116.501 173.262ZM122.308 178.494L120.221 177.289L118.845 177.67L117.991 177.178L124.767 175.327L125.713 175.874L122.508 179.786L121.648 179.289L122.308 178.494ZM122.745 177.977L124.251 176.172L121.117 177.037L122.745 177.977ZM129.802 178.243L124.819 181.12L124.002 180.648L128.985 177.771L129.802 178.243ZM128.201 183.13C127.866 182.937 127.622 182.73 127.469 182.509C127.321 182.286 127.278 182.068 127.34 181.855C127.403 181.643 127.577 181.454 127.864 181.288L128.739 181.793C128.543 181.928 128.449 182.079 128.459 182.244C128.473 182.413 128.617 182.575 128.889 182.733C129.171 182.895 129.458 182.984 129.75 182.998C130.046 183.009 130.302 182.952 130.517 182.828C130.684 182.731 130.77 182.624 130.775 182.505C130.784 182.389 130.744 182.272 130.653 182.153C130.567 182.037 130.428 181.885 130.237 181.698C129.998 181.46 129.819 181.258 129.699 181.089C129.589 180.921 129.556 180.742 129.599 180.551C129.642 180.361 129.819 180.176 130.13 179.996C130.416 179.831 130.739 179.727 131.097 179.686C131.456 179.645 131.822 179.665 132.194 179.748C132.567 179.831 132.923 179.97 133.263 180.166C133.746 180.445 134.018 180.743 134.08 181.06C134.152 181.378 133.994 181.667 133.607 181.93L132.703 181.408C132.871 181.295 132.94 181.155 132.911 180.99C132.883 180.824 132.739 180.667 132.481 180.518C132.247 180.383 131.996 180.307 131.728 180.29C131.461 180.274 131.215 180.33 130.99 180.46C130.837 180.548 130.756 180.648 130.746 180.758C130.746 180.868 130.789 180.982 130.875 181.098C130.961 181.213 131.095 181.362 131.277 181.545C131.516 181.787 131.693 181.994 131.807 182.166C131.927 182.339 131.963 182.523 131.915 182.716C131.877 182.909 131.7 183.097 131.384 183.279C131.131 183.425 130.823 183.523 130.459 183.573C130.101 183.625 129.721 183.616 129.319 183.544C128.927 183.472 128.555 183.334 128.201 183.13Z" fill="white"/>
</g>
<g filter="url(#filter5_d_1_272)">
<path d="M58.2734 153.415C57.5962 153.806 57.18 154.175 57.0246 154.522C56.8693 154.869 57.0664 155.202 57.6161 155.519C58.1658 155.836 58.7414 155.95 59.3429 155.86C59.9483 155.773 60.5896 155.534 61.2668 155.143C61.936 154.757 62.3463 154.389 62.4976 154.039C62.653 153.692 62.4558 153.36 61.9061 153.042C61.3564 152.725 60.7808 152.611 60.1794 152.701C59.5819 152.788 58.9465 153.026 58.2734 153.415ZM60.7291 154.832C60.3825 155.033 60.0658 155.186 59.779 155.291C59.5002 155.397 59.2214 155.45 58.9426 155.45C58.6637 155.45 58.3929 155.374 58.13 155.222C57.8711 155.073 57.7416 154.918 57.7416 154.757C57.7416 154.596 57.8312 154.433 58.0105 154.27C58.1977 154.107 58.4646 153.925 58.8111 153.725C59.1537 153.527 59.4644 153.376 59.7432 153.27C60.026 153.166 60.3048 153.116 60.5797 153.118C60.8585 153.118 61.1274 153.193 61.3863 153.342C61.6492 153.494 61.7806 153.65 61.7806 153.811C61.7846 153.97 61.695 154.13 61.5118 154.291C61.3325 154.454 61.0716 154.635 60.7291 154.832ZM65.2775 156.355C65.4966 156.191 65.6041 156.03 65.6001 155.872C65.6041 155.713 65.4846 155.564 65.2417 155.423C64.9031 155.228 64.5147 155.155 64.0765 155.206C63.6424 155.259 63.1405 155.45 62.5709 155.779L62.3558 155.91C62.6545 155.806 62.9811 155.776 63.3357 155.82C63.6941 155.861 64.0188 155.966 64.3096 156.134C64.7278 156.375 64.929 156.636 64.913 156.917C64.9011 157.2 64.6701 157.471 64.2199 157.731C63.957 157.883 63.6663 157.991 63.3476 158.055C63.0329 158.117 62.7043 158.123 62.3617 158.073C62.0272 158.022 61.7025 157.906 61.3878 157.724C60.7864 157.377 60.5613 157.028 60.7127 156.679C60.868 156.332 61.2703 155.971 61.9196 155.596C62.6685 155.163 63.3496 154.908 63.963 154.83C64.5844 154.752 65.168 154.87 65.7137 155.185C66.116 155.418 66.3112 155.661 66.2992 155.917C66.2912 156.174 66.1239 156.42 65.7973 156.655L65.2775 156.355ZM61.8599 156.265C61.5691 156.433 61.4078 156.623 61.3759 156.834C61.352 157.046 61.5093 157.249 61.8479 157.445C62.1267 157.606 62.4315 157.687 62.7621 157.69C63.0967 157.69 63.4133 157.603 63.7121 157.431C64.0347 157.245 64.196 157.055 64.196 156.862C64.2 156.666 64.0546 156.483 63.7599 156.313C63.5926 156.217 63.3994 156.144 63.1803 156.096C62.9612 156.048 62.7342 156.036 62.4992 156.061C62.2681 156.084 62.055 156.152 61.8599 156.265ZM71.014 156.734L62.7268 159.629L62.201 159.325L70.4822 156.427L71.014 156.734ZM66.079 159.901C67.2102 160.03 68.2021 160.083 69.0545 160.06C69.9109 160.035 70.5323 159.911 70.9186 159.687C71.1576 159.549 71.2871 159.403 71.307 159.249C71.3349 159.095 71.2134 158.94 70.9425 158.784C70.6637 158.623 70.363 158.553 70.0403 158.573C69.7217 158.592 69.399 158.686 69.0724 158.856L68.5347 158.546C69.0326 158.29 69.5384 158.166 70.0523 158.173C70.5701 158.178 71.0362 158.3 71.4504 158.539C71.8448 158.766 72.0519 159.008 72.0718 159.263C72.0917 159.518 71.9085 159.758 71.5221 159.981C71.2035 160.165 70.7753 160.292 70.2375 160.364C69.7077 160.435 69.1461 160.462 68.5526 160.446C67.967 160.43 67.4134 160.384 66.8916 160.308L69.0306 161.543L68.5825 161.802L65.6846 160.129L66.079 159.901ZM71.2735 160.92C70.5963 161.311 70.18 161.68 70.0247 162.028C69.8694 162.375 70.0665 162.707 70.6162 163.025C71.1659 163.342 71.7415 163.456 72.343 163.366C72.9484 163.279 73.5897 163.04 74.2669 162.649C74.9361 162.262 75.3463 161.894 75.4977 161.545C75.6531 161.197 75.4559 160.865 74.9062 160.548C74.3565 160.23 73.7809 160.117 73.1795 160.206C72.582 160.294 71.9466 160.532 71.2735 160.92ZM73.7291 162.338C73.3826 162.538 73.0659 162.691 72.7791 162.797C72.5003 162.903 72.2215 162.956 71.9426 162.956C71.6638 162.956 71.393 162.88 71.1301 162.728C70.8711 162.578 70.7417 162.423 70.7417 162.262C70.7417 162.101 70.8313 161.939 71.0106 161.776C71.1978 161.613 71.4647 161.431 71.8112 161.231C72.1538 161.033 72.4645 160.881 72.7433 160.775C73.0261 160.672 73.3049 160.621 73.5798 160.624C73.8586 160.624 74.1275 160.698 74.3864 160.848C74.6493 161 74.7807 161.156 74.7807 161.317C74.7847 161.476 74.6951 161.636 74.5119 161.797C74.3326 161.96 74.0717 162.14 73.7291 162.338ZM73.1392 163.978C74.2704 164.106 75.2622 164.159 76.1147 164.136C76.9711 164.111 77.5925 163.987 77.9788 163.764C78.2178 163.626 78.3473 163.48 78.3672 163.326C78.3951 163.171 78.2736 163.016 78.0027 162.86C77.7239 162.699 77.4232 162.629 77.1005 162.649C76.7819 162.668 76.4592 162.762 76.1326 162.932L75.5949 162.622C76.0928 162.367 76.5986 162.242 77.1125 162.249C77.6303 162.254 78.0963 162.376 78.5106 162.615C78.9049 162.843 79.1121 163.084 79.132 163.339C79.1519 163.595 78.9687 163.834 78.5823 164.057C78.2636 164.241 77.8354 164.369 77.2977 164.44C76.7679 164.511 76.2063 164.539 75.6128 164.523C75.0272 164.506 74.4736 164.46 73.9518 164.385L76.0908 165.62L75.6427 165.878L72.7448 164.205L73.1392 163.978ZM77.0132 165.579L77.4673 165.317L82.4504 164.938L83.0359 165.276L80.2337 166.894L80.8551 167.253L80.383 167.525L79.7616 167.166L78.7937 167.725L78.244 167.408L79.212 166.849L77.0132 165.579ZM81.8588 165.362L78.0588 165.638L79.7198 166.597L81.8588 165.362Z" fill="white" fill-opacity="0.7" shape-rendering="crispEdges"/>
</g>
<path d="M187.37 159.273C187.623 159.127 188.033 159.127 188.286 159.273L193.121 162.065C193.374 162.211 193.374 162.447 193.121 162.593L190.842 163.909C190.589 164.055 190.179 164.055 189.926 163.909L185.091 161.118C184.838 160.972 184.838 160.735 185.091 160.589L187.37 159.273Z" fill="white"/>
<path d="M166.793 153.296C167.046 153.15 167.456 153.15 167.709 153.296L172.544 156.088C172.797 156.234 172.797 156.47 172.544 156.617L170.265 157.932C170.012 158.078 169.602 158.078 169.349 157.932L164.513 155.141C164.26 154.995 164.26 154.758 164.513 154.612L166.793 153.296Z" fill="white"/>
<path d="M171.905 150.344C172.158 150.198 172.568 150.198 172.821 150.344L177.657 153.136C177.91 153.282 177.91 153.519 177.657 153.665L175.378 154.981C175.125 155.127 174.714 155.127 174.461 154.981L169.626 152.189C169.373 152.043 169.373 151.806 169.626 151.66L171.905 150.344Z" fill="white"/>
<path d="M178.296 155.51C178.549 155.364 178.959 155.364 179.212 155.51L184.176 158.376C184.429 158.522 184.429 158.758 184.176 158.905L179.34 161.696C179.087 161.842 178.677 161.842 178.424 161.696L173.461 158.831C173.208 158.685 173.208 158.448 173.461 158.302L178.296 155.51Z" fill="white"/>
<path d="M182.26 162.226C182.513 162.08 182.923 162.08 183.176 162.226L188.011 165.018C188.264 165.164 188.264 165.4 188.011 165.546L185.732 166.862C185.479 167.008 185.069 167.008 184.816 166.862L179.98 164.071C179.727 163.925 179.727 163.688 179.98 163.542L182.26 162.226Z" fill="white"/>
<path d="M180.99 152.847C181.52 153.153 181.52 153.648 180.99 153.954V153.954C180.814 154.056 180.814 154.221 180.99 154.323L182.194 155.018C182.447 155.164 182.857 155.164 183.11 155.018L184.889 153.991C185.143 153.844 185.488 153.762 185.847 153.762V153.762C186.055 153.762 186.158 153.617 186.012 153.532L176.656 148.13C176.403 147.984 175.992 147.984 175.739 148.13L174.738 148.708C174.485 148.854 174.485 149.091 174.738 149.237L180.99 152.847Z" fill="white"/>
<path d="M186.677 155.327C186.505 155.327 186.341 155.366 186.219 155.436L185.027 156.125C184.774 156.271 184.774 156.507 185.027 156.653L186.231 157.348C186.407 157.45 186.693 157.45 186.87 157.348V157.348C187.399 157.043 188.258 157.043 188.787 157.348L195.039 160.958C195.292 161.104 195.702 161.104 195.955 160.958L196.956 160.38C197.209 160.234 197.209 159.997 196.956 159.851L189.31 155.436C189.188 155.366 189.024 155.327 188.852 155.327L186.677 155.327Z" fill="white"/>
<path d="M176.646 164.359C176.117 164.054 176.117 163.558 176.646 163.253V163.253C176.823 163.151 176.823 162.986 176.646 162.884L175.443 162.189C175.19 162.043 174.78 162.043 174.527 162.189L172.748 163.216C172.494 163.362 172.149 163.445 171.789 163.445V163.445C171.582 163.445 171.478 163.59 171.625 163.674L180.981 169.076C181.234 169.222 181.644 169.222 181.897 169.076L182.898 168.498C183.151 168.352 183.151 168.115 182.898 167.969L176.646 164.359Z" fill="white"/>
<path d="M170.958 161.879C171.13 161.879 171.295 161.839 171.416 161.769L172.608 161.081C172.861 160.935 172.861 160.698 172.608 160.552L171.404 159.857C171.228 159.755 170.942 159.755 170.765 159.857V159.857C170.236 160.163 169.378 160.163 168.848 159.857L162.596 156.248C162.343 156.102 161.933 156.102 161.68 156.248L160.679 156.826C160.426 156.972 160.426 157.208 160.679 157.355L168.325 161.769C168.447 161.839 168.612 161.879 168.783 161.879L170.958 161.879Z" fill="white"/>
<rect x="-1.57639e-08" y="0.264474" width="24.3316" height="18.5132" rx="0.793421" transform="matrix(0.866025 0.5 -0.866025 0.5 176.427 147.705)" stroke="white" stroke-width="0.528947"/>
<g style="mix-blend-mode:overlay">
<path d="M164.994 167.779C163.797 167.62 161.333 166.943 161.062 165.513M163.369 170.345C161.511 170.07 157.558 168.906 156.61 166.45M162.151 172.746C159.676 172.355 154.306 170.709 152.626 167.258M160.418 175.09C157.403 174.679 150.81 172.737 148.558 168.257" stroke="white" stroke-width="1.37985" stroke-linecap="round" stroke-linejoin="round"/>
</g>
<path fill-rule="evenodd" clip-rule="evenodd" d="M315.942 167.186L366.095 138.23C365.109 135.951 363.83 133.708 362.26 131.52C358.738 126.61 353.842 122.102 347.81 118.163C343.119 115.099 337.742 112.38 331.789 110.083C318.184 104.835 302.189 102.034 285.826 102.034C269.463 102.034 253.468 104.835 239.863 110.083C226.258 115.332 215.654 122.792 209.392 131.52C203.516 139.71 201.711 148.672 204.149 157.402L238.403 177.178L256.576 166.686C250.791 163.346 246.851 159.091 245.255 154.458C243.659 149.825 244.478 145.023 247.609 140.659C250.74 136.295 256.042 132.565 262.845 129.941C269.647 127.317 277.645 125.916 285.826 125.916C294.008 125.916 302.005 127.317 308.808 129.941C311.072 130.814 313.169 131.81 315.076 132.911C318.541 134.911 321.375 137.259 323.431 139.848C323.643 140.116 323.847 140.386 324.043 140.659C326 143.387 327.054 146.285 327.179 149.207C327.188 149.404 327.192 149.601 327.192 149.799C327.192 151.355 326.928 152.916 326.397 154.458C325.898 155.906 325.171 157.316 324.229 158.674C324.168 158.762 324.106 158.85 324.043 158.938C321.974 161.822 318.936 164.458 315.076 166.686L315.942 167.186ZM267.544 160.353C257.447 154.524 257.447 145.073 267.544 139.244C277.64 133.415 294.01 133.415 304.106 139.244C314.203 145.073 314.203 154.524 304.106 160.353C299.147 163.217 292.674 164.674 286.174 164.724C286.058 164.725 285.941 164.725 285.825 164.725C285.709 164.725 285.592 164.725 285.476 164.724C278.976 164.674 272.503 163.217 267.544 160.353Z" fill="url(#paint4_linear_1_272)"/>
</g>
<defs>
<filter id="filter0_d_1_272" x="0" y="0.0415039" width="466.318" height="303.041" filterUnits="userSpaceOnUse" color-interpolation-filters="sRGB">
<feFlood flood-opacity="0" result="BackgroundImageFix"/>
<feColorMatrix in="SourceAlpha" type="matrix" values="0 0 0 0 0 0 0 0 0 0 0 0 0 0 0 0 0 0 127 0" result="hardAlpha"/>
<feOffset dx="4" dy="22"/>
<feGaussianBlur stdDeviation="20"/>
<feComposite in2="hardAlpha" operator="out"/>
<feColorMatrix type="matrix" values="0 0 0 0 0 0 0 0 0 0 0 0 0 0 0 0 0 0 0.25 0"/>
<feBlend mode="normal" in2="BackgroundImageFix" result="effect1_dropShadow_1_272"/>
<feBlend mode="normal" in="SourceGraphic" in2="effect1_dropShadow_1_272" result="shape"/>
</filter>
<filter id="filter1_b_1_272" x="29" y="11.0415" width="400.318" height="237.041" filterUnits="userSpaceOnUse" color-interpolation-filters="sRGB">
<feFlood flood-opacity="0" result="BackgroundImageFix"/>
<feGaussianBlur in="BackgroundImageFix" stdDeviation="3.5"/>
<feComposite in2="SourceAlpha" operator="in" result="effect1_backgroundBlur_1_272"/>
<feBlend mode="normal" in="SourceGraphic" in2="effect1_backgroundBlur_1_272" result="shape"/>
</filter>
<filter id="filter2_b_1_272" x="29" y="97.3799" width="250.776" height="150.703" filterUnits="userSpaceOnUse" color-interpolation-filters="sRGB">
<feFlood flood-opacity="0" result="BackgroundImageFix"/>
<feGaussianBlur in="BackgroundImageFix" stdDeviation="3.5"/>
<feComposite in2="SourceAlpha" operator="in" result="effect1_backgroundBlur_1_272"/>
<feBlend mode="normal" in="SourceGraphic" in2="effect1_backgroundBlur_1_272" result="shape"/>
</filter>
<filter id="filter3_d_1_272" x="152.744" y="33.531" width="128.717" height="74.7618" filterUnits="userSpaceOnUse" color-interpolation-filters="sRGB">
<feFlood flood-opacity="0" result="BackgroundImageFix"/>
<feColorMatrix in="SourceAlpha" type="matrix" values="0 0 0 0 0 0 0 0 0 0 0 0 0 0 0 0 0 0 127 0" result="hardAlpha"/>
<feOffset dy="0.528947"/>
<feGaussianBlur stdDeviation="0.264474"/>
<feComposite in2="hardAlpha" operator="out"/>
<feColorMatrix type="matrix" values="0 0 0 0 0 0 0 0 0 0 0 0 0 0 0 0 0 0 0.2 0"/>
<feBlend mode="normal" in2="BackgroundImageFix" result="effect1_dropShadow_1_272"/>
<feBlend mode="normal" in="SourceGraphic" in2="effect1_dropShadow_1_272" result="shape"/>
</filter>
<filter id="filter4_d_1_272" x="66.7001" y="145.257" width="69.3193" height="40.8668" filterUnits="userSpaceOnUse" color-interpolation-filters="sRGB">
<feFlood flood-opacity="0" result="BackgroundImageFix"/>
<feColorMatrix in="SourceAlpha" type="matrix" values="0 0 0 0 0 0 0 0 0 0 0 0 0 0 0 0 0 0 127 0" result="hardAlpha"/>
<feOffset dy="1"/>
<feGaussianBlur stdDeviation="0.5"/>
<feComposite in2="hardAlpha" operator="out"/>
<feColorMatrix type="matrix" values="0 0 0 0 0 0 0 0 0 0 0 0 0 0 0 0 0 0 0.15 0"/>
<feBlend mode="normal" in2="BackgroundImageFix" result="effect1_dropShadow_1_272"/>
<feBlend mode="normal" in="SourceGraphic" in2="effect1_dropShadow_1_272" result="shape"/>
</filter>
<filter id="filter5_d_1_272" x="54.1187" y="151.397" width="31.9248" height="19.2771" filterUnits="userSpaceOnUse" color-interpolation-filters="sRGB">
<feFlood flood-opacity="0" result="BackgroundImageFix"/>
<feColorMatrix in="SourceAlpha" type="matrix" values="0 0 0 0 0 0 0 0 0 0 0 0 0 0 0 0 0 0 127 0" result="hardAlpha"/>
<feOffset dy="1"/>
<feGaussianBlur stdDeviation="0.5"/>
<feComposite in2="hardAlpha" operator="out"/>
<feColorMatrix type="matrix" values="0 0 0 0 0 0 0 0 0 0 0 0 0 0 0 0 0 0 0.15 0"/>
<feBlend mode="normal" in2="BackgroundImageFix" result="effect1_dropShadow_1_272"/>
<feBlend mode="normal" in="SourceGraphic" in2="effect1_dropShadow_1_272" result="shape"/>
</filter>
<linearGradient id="paint0_linear_1_272" x1="0" y1="0" x2="178" y2="284.248" gradientUnits="userSpaceOnUse">
<stop stop-color="white" stop-opacity="0.4"/>
<stop offset="1" stop-color="white" stop-opacity="0.1"/>
</linearGradient>
<linearGradient id="paint1_linear_1_272" x1="-1.21225e-06" y1="9.5" x2="167.5" y2="284" gradientUnits="userSpaceOnUse">
<stop stop-color="white"/>
<stop offset="1" stop-color="white" stop-opacity="0.1"/>
</linearGradient>
<linearGradient id="paint2_linear_1_272" x1="9.89486" y1="0" x2="9.89486" y2="19.7897" gradientUnits="userSpaceOnUse">
<stop stop-color="white"/>
<stop offset="0.479167" stop-opacity="0.5"/>
<stop offset="0.9375" stop-color="white"/>
</linearGradient>
<linearGradient id="paint3_linear_1_272" x1="9.89486" y1="0" x2="9.89486" y2="19.7897" gradientUnits="userSpaceOnUse">
<stop stop-color="white"/>
<stop offset="0.479167" stop-opacity="0.5"/>
<stop offset="0.9375" stop-color="white"/>
</linearGradient>
<linearGradient id="paint4_linear_1_272" x1="307.597" y1="64.9335" x2="305.709" y2="172.043" gradientUnits="userSpaceOnUse">
<stop stop-color="white"/>
<stop offset="1" stop-color="white" stop-opacity="0"/>
</linearGradient>
</defs>
</svg>
